<?xml version="1.0" standalone="no"?>
<!DOCTYPE svg PUBLIC "-//W3C//DTD SVG 20010904//EN"
 "http://www.w3.org/TR/2001/REC-SVG-20010904/DTD/svg10.dtd">
<svg version="1.0" xmlns="http://www.w3.org/2000/svg"
 width="230.000000pt" height="219.000000pt" viewBox="0 0 230.000000 219.000000"
 preserveAspectRatio="xMidYMid meet">
<metadata>
Created by potrace 1.10, written by Peter Selinger 2001-2011
</metadata>
<g transform="translate(0.000000,219.000000) scale(0.100000,-0.100000)"
fill="#000000" stroke="none">
<path d="M1340 1557 c-1 -53 -38 -105 -114 -161 -79 -59 -97 -91 -82 -151 8
-32 26 -32 26 0 0 41 33 65 90 65 47 0 63 -11 40 -25 -17 -10 -11 -63 11 -107
51 -100 28 -212 -59 -288 -25 -22 -49 -40 -53 -40 -5 0 -9 -4 -9 -9 0 -14 93
15 160 49 67 34 143 113 171 177 43 101 41 227 -4 327 -28 62 -92 135 -143
165 l-34 20 0 -22z m83 -87 c107 -118 125 -298 43 -428 -33 -52 -126 -132
-126 -108 0 2 7 20 15 39 21 51 19 137 -5 199 -11 29 -20 71 -20 94 0 46 -18
68 -63 80 l-29 7 52 51 c29 28 58 63 66 79 8 15 18 27 23 27 5 0 25 -18 44
-40z"/>
<path d="M895 1524 c-58 -45 -119 -137 -135 -205 -20 -84 -9 -197 28 -271 39
-80 101 -144 165 -173 l50 -22 -45 -11 c-57 -14 -93 -43 -121 -95 -18 -34 -22
-58 -22 -132 0 -56 6 -101 14 -120 l14 -30 8 47 c8 51 51 133 96 184 16 17 63
59 105 93 104 83 133 133 133 226 -1 89 -20 128 -121 235 -97 104 -128 168
-122 251 2 32 4 59 3 59 -1 0 -23 -16 -50 -36z m25 -122 c1 -29 43 -92 116
-172 88 -98 113 -145 114 -214 0 -68 -30 -125 -93 -178 -88 -73 -158 -141
-175 -170 -36 -62 -45 -6 -9 61 15 30 37 51 71 70 72 39 79 57 37 89 -117 92
-158 143 -183 229 -31 106 -2 255 64 325 l31 33 13 -30 c7 -16 13 -36 14 -43z"/>
</g>
</svg>
